<svg width="560" height="560" viewBox="0 0 560 560" fill="none" xmlns="http://www.w3.org/2000/svg">
<path d="M171.244 235.316L280 126.56L388.808 235.364L452.088 172.084L280 0L107.968 172.032L171.246 235.312L171.244 235.316ZM0 280L63.2822 216.709L126.56 279.987L63.2778 343.269L0 280ZM171.244 324.69L280 433.44L388.806 324.639L452.119 387.885L452.088 387.919L280 560L107.968 387.968L107.878 387.878L171.25 324.684L171.244 324.69ZM433.44 280.027L496.722 216.745L560 280.022L496.72 343.305L433.44 280.027Z" fill="#F3BA2F"/>
<path d="M344.18 279.966H344.207L280 215.755L232.541 263.2L227.089 268.654L215.844 279.901L215.755 279.989L215.844 280.081L280 344.245L344.212 280.034L344.243 279.998L344.185 279.966" fill="#F3BA2F"/>
</svg>
