<svg width="47" height="53" viewBox="0 0 47 53" fill="none" xmlns="http://www.w3.org/2000/svg">
<path d="M12.6057 2.56646C10.9988 3.54988 3.66925 8.98159 3.66925 26.1448C3.66925 26.2562 3.67058 26.3667 3.6719 26.477L3.67389 26.687C3.67471 26.8445 3.63833 27.0001 3.56739 27.1405C2.09661 30.0473 1.64549 33.0779 2.22642 36.1481C3.18837 41.2339 8.82243 50.8054 23.257 50.8058C23.3279 50.8058 23.3981 50.8056 23.4693 50.8051C28.9117 50.77 41.8387 49.2714 44.3212 36.1481C44.9021 33.0779 44.451 30.0472 42.98 27.1403C42.9093 26.9998 42.8729 26.8444 42.8737 26.6868L42.8757 26.4878C42.8767 26.3736 42.878 26.2596 42.878 26.1448C42.878 6.95769 35.7573 3.17099 34.1547 2.563C32.9611 3.28794 28.5598 6.48066 26.4221 15.1503C26.3044 15.6281 25.851 15.9458 25.3621 15.9001C24.0311 15.7721 22.7475 15.764 21.3846 15.8826C20.8837 15.9275 20.4277 15.5889 20.3254 15.0973C19.0987 9.22059 16.9607 6.09023 15.3829 4.49915C14.182 3.28761 13.1177 2.76605 12.6057 2.56646ZM23.2552 52.7881C7.51851 52.7884 1.34138 42.1617 0.273272 36.5154C-0.366203 33.1336 0.121632 29.6645 1.68419 26.4663C1.68303 26.3594 1.68204 26.2525 1.68204 26.1448C1.68204 5.57345 11.6624 0.783543 12.0873 0.589729C12.2813 0.500824 12.5004 0.477242 12.7082 0.521778C12.9841 0.580498 19.3489 2.0703 22.0846 13.8475C22.9744 13.8015 23.8247 13.8068 24.7038 13.8604C27.521 3.48621 33.3775 0.705853 33.6313 0.589729C33.8255 0.501152 34.0431 0.477242 34.2524 0.521778C34.6857 0.613983 44.8652 3.04662 44.8652 26.1448C44.8652 26.2524 44.8644 26.3591 44.8634 26.4662C46.4256 29.6641 46.9136 33.1338 46.2742 36.5154C45.3559 41.3696 41.2968 52.6723 23.4822 52.7874C23.4065 52.7879 23.3306 52.7881 23.2552 52.7881Z" fill="white"/>
<path d="M43.8689 26.6924C43.8701 26.5091 43.8732 26.3274 43.8732 26.1431C43.8732 3.58147 34.0468 1.48944 34.0468 1.48944C34.0468 1.48944 28.0988 4.20497 25.4589 14.912C24.7333 14.8424 24.0045 14.8056 23.2752 14.8056C22.6158 14.8056 21.9564 14.8366 21.2999 14.8937C18.7814 2.82832 12.5022 1.48944 12.5022 1.48944C12.5022 1.48944 2.67726 5.97205 2.67726 26.1431C2.67726 26.3274 2.6804 26.5091 2.68156 26.6924C1.20202 29.6176 0.602895 32.9015 1.2513 36.3302C2.31031 41.9286 8.42791 51.892 23.4773 51.7947C39.7941 51.6893 44.24 41.9286 45.2992 36.3302C45.9478 32.9015 45.3486 29.6176 43.8689 26.6924Z" fill="#231F20"/>
<path d="M25.3769 43.0852C25.3769 43.0852 24.6967 35.2716 27.0213 30.7384C29.2147 26.4611 34.7732 24.6088 40.3522 31.6143C40.3522 31.6143 40.1174 48.2517 25.3769 43.0852Z" fill="white"/>
<path d="M30.0198 27.2856C29.3332 28.7223 28.9004 30.8115 28.9004 33.1388C28.9004 33.5643 28.9154 33.9818 28.9432 34.3891L31.7779 34.4387L29.1036 35.8373C29.5731 38.8405 30.8038 40.9836 32.2478 40.9836C34.0966 40.9836 35.5953 37.4713 35.5953 33.1388C35.5953 30.5268 35.0501 28.2144 34.2125 26.7886C32.6643 26.4064 31.2354 26.6341 30.0198 27.2856Z" fill="#231F20"/>
<path d="M21.1775 43.0852C21.1775 43.0852 21.8576 35.2716 19.5329 30.7384C17.3396 26.4611 11.781 24.6088 6.20215 31.6143C6.20215 31.6143 6.43697 48.2517 21.1775 43.0852Z" fill="white"/>
<path d="M16.534 27.2856C17.2206 28.7223 17.6534 30.8115 17.6534 33.1388C17.6534 33.5643 17.6383 33.9818 17.6104 34.3891L14.7758 34.4387L17.45 35.8373C16.9807 38.8405 15.75 40.9836 14.3059 40.9836C12.4572 40.9836 10.9585 37.4713 10.9585 33.1388C10.9585 30.5268 11.5037 28.2144 12.3413 26.7886C13.8895 26.4064 15.3184 26.6341 16.534 27.2856Z" fill="#231F20"/>
</svg>
