<svg width="47" height="53" viewBox="0 0 47 53" fill="none" xmlns="http://www.w3.org/2000/svg">
<path d="M12.6057 2.06646C10.9988 3.04988 3.66925 8.48159 3.66925 25.6448C3.66925 25.7562 3.67058 25.8667 3.6719 25.977L3.67389 26.187C3.67471 26.3445 3.63833 26.5001 3.56739 26.6405C2.09661 29.5473 1.64549 32.5779 2.22642 35.6481C3.18837 40.7339 8.82243 50.3054 23.257 50.3058C23.3279 50.3058 23.3981 50.3056 23.4693 50.3051C28.9117 50.27 41.8387 48.7714 44.3212 35.6481C44.9021 32.5779 44.451 29.5472 42.98 26.6403C42.9093 26.4998 42.8729 26.3444 42.8737 26.1868L42.8757 25.9878C42.8767 25.8736 42.878 25.7596 42.878 25.6448C42.878 6.45769 35.7573 2.67099 34.1547 2.063C32.9611 2.78794 28.5598 5.98066 26.4221 14.6503C26.3044 15.1281 25.851 15.4458 25.3621 15.4001C24.0311 15.2721 22.7475 15.264 21.3846 15.3826C20.8837 15.4275 20.4277 15.0889 20.3254 14.5973C19.0987 8.72059 16.9607 5.59023 15.3829 3.99915C14.182 2.78761 13.1177 2.26605 12.6057 2.06646ZM23.2552 52.2881C7.51851 52.2884 1.34138 41.6617 0.273272 36.0154C-0.366203 32.6336 0.121632 29.1645 1.68419 25.9663C1.68303 25.8594 1.68204 25.7525 1.68204 25.6448C1.68204 5.07345 11.6624 0.283543 12.0873 0.0897293C12.2813 0.000823975 12.5004 -0.0227585 12.7082 0.0217781C12.9841 0.0804977 19.3489 1.5703 22.0846 13.3475C22.9744 13.3015 23.8247 13.3068 24.7038 13.3604C27.521 2.98621 33.3775 0.205853 33.6313 0.0897293C33.8255 0.00115204 34.0431 -0.0227585 34.2524 0.0217781C34.6857 0.113983 44.8652 2.54662 44.8652 25.6448C44.8652 25.7524 44.8644 25.8591 44.8634 25.9662C46.4256 29.1641 46.9136 32.6338 46.2742 36.0154C45.3559 40.8696 41.2968 52.1723 23.4822 52.2874C23.4065 52.2879 23.3306 52.2881 23.2552 52.2881Z" fill="white"/>
<path d="M43.8689 26.1924C43.8701 26.0091 43.8732 25.8274 43.8732 25.6431C43.8732 3.08147 34.0468 0.989445 34.0468 0.989445C34.0468 0.989445 28.0988 3.70497 25.4589 14.412C24.7333 14.3424 24.0045 14.3056 23.2752 14.3056C22.6158 14.3056 21.9564 14.3366 21.2999 14.3937C18.7814 2.32832 12.5022 0.989445 12.5022 0.989445C12.5022 0.989445 2.67726 5.47205 2.67726 25.6431C2.67726 25.8274 2.6804 26.0091 2.68156 26.1924C1.20202 29.1176 0.602895 32.4015 1.2513 35.8302C2.31031 41.4286 8.42791 51.392 23.4773 51.2947C39.7941 51.1893 44.24 41.4286 45.2992 35.8302C45.9478 32.4015 45.3486 29.1176 43.8689 26.1924Z" fill="#231F20"/>
<path d="M25.3769 42.5852C25.3769 42.5852 24.6967 34.7716 27.0213 30.2384C29.2147 25.9611 34.7732 24.1088 40.3522 31.1143C40.3522 31.1143 40.1174 47.7517 25.3769 42.5852Z" fill="white"/>
<path d="M30.0198 26.7856C29.3332 28.2223 28.9004 30.3115 28.9004 32.6388C28.9004 33.0643 28.9154 33.4818 28.9432 33.8891L31.7779 33.9387L29.1036 35.3373C29.5731 38.3405 30.8038 40.4836 32.2478 40.4836C34.0966 40.4836 35.5953 36.9713 35.5953 32.6388C35.5953 30.0268 35.0501 27.7144 34.2125 26.2886C32.6643 25.9064 31.2354 26.1341 30.0198 26.7856Z" fill="#231F20"/>
<path d="M21.1775 42.5852C21.1775 42.5852 21.8576 34.7716 19.5329 30.2384C17.3396 25.9611 11.781 24.1088 6.20215 31.1143C6.20215 31.1143 6.43697 47.7517 21.1775 42.5852Z" fill="white"/>
<path d="M16.534 26.7856C17.2206 28.2223 17.6534 30.3115 17.6534 32.6388C17.6534 33.0643 17.6383 33.4818 17.6104 33.8891L14.7758 33.9387L17.45 35.3373C16.9807 38.3405 15.75 40.4836 14.3059 40.4836C12.4572 40.4836 10.9585 36.9713 10.9585 32.6388C10.9585 30.0268 11.5037 27.7144 12.3413 26.2886C13.8895 25.9064 15.3184 26.1341 16.534 26.7856Z" fill="#231F20"/>
</svg>
